<?xml version="1.0" encoding="UTF-8"?>
<!DOCTYPE svg PUBLIC "-//W3C//DTD SVG 1.1//EN" "http://www.w3.org/Graphics/SVG/1.1/DTD/svg11.dtd">
<!-- Creator: CorelDRAW -->
<svg xmlns="http://www.w3.org/2000/svg" xml:space="preserve" width="1000px" height="1000px" version="1.1" style="shape-rendering:geometricPrecision; text-rendering:geometricPrecision; image-rendering:optimizeQuality; fill-rule:evenodd; clip-rule:evenodd"
viewBox="0 0 375.22 375.22"
 xmlns:xlink="http://www.w3.org/1999/xlink"
 xmlns:xodm="http://www.corel.com/coreldraw/odm/2003">
 <defs>
  <style type="text/css">
   <![CDATA[
    .str0 {stroke:#ED3237;stroke-width:24.56;stroke-linecap:round;stroke-miterlimit:22.9256}
    .fil1 {fill:none}
    .fil0 {fill:#ED3237}
   ]]>
  </style>
 </defs>
 <g id="Laag_x0020_1">
  <metadata id="CorelCorpID_0Corel-Layer"/>
  <g id="_1297184636736">
   <g>
    <path class="fil0" d="M187.61 95.52c50.85,0 92.08,41.23 92.08,92.09 0,50.86 -41.23,92.08 -92.08,92.08 -50.86,0 -92.09,-41.22 -92.09,-92.08 0,-50.86 41.23,-92.09 92.09,-92.09zm47.75 44.34c-12.22,-12.22 -29.1,-19.78 -47.75,-19.78 -18.65,0 -35.54,7.56 -47.75,19.78 -12.22,12.21 -19.78,29.1 -19.78,47.75 0,18.65 7.56,35.53 19.78,47.75 12.21,12.22 29.1,19.78 47.75,19.78 18.65,0 35.53,-7.56 47.75,-19.78 12.22,-12.22 19.78,-29.1 19.78,-47.75 0,-18.65 -7.56,-35.54 -19.78,-47.75z"/>
   </g>
   <g>
    <line class="fil1 str0" x1="187.61" y1="12.28" x2="187.61" y2= "68.49" />
    <line class="fil1 str0" x1="12.28" y1="187.61" x2="68.49" y2= "187.61" />
    <g>
     <line class="fil1 str0" x1="187.61" y1="362.94" x2="187.61" y2= "306.73" />
     <line class="fil1 str0" x1="362.94" y1="187.61" x2="306.73" y2= "187.61" />
    </g>
   </g>
   <g>
    <line class="fil1 str0" x1="63.63" y1="63.63" x2="103.38" y2= "103.38" />
    <line class="fil1 str0" x1="63.63" y1="311.58" x2="103.38" y2= "271.84" />
    <g>
     <line class="fil1 str0" x1="311.58" y1="311.59" x2="271.84" y2= "271.84" />
     <line class="fil1 str0" x1="311.59" y1="63.63" x2="271.84" y2= "103.38" />
    </g>
   </g>
  </g>
  <g>
   <path class="fil0" d="M187.61 187.61l-92.09 0c0,-50.86 41.23,-92.09 92.09,-92.09 50.85,0 92.08,41.23 92.08,92.09l-92.08 0z"/>
   <path id="_1" class="fil0" d="M187.61 187.61l-92.09 0c0,-50.86 41.23,-92.09 92.09,-92.09 50.85,0 92.08,41.23 92.08,92.09l-92.08 0zm-62.93 -24.56l62.93 0 62.92 0c-3.42,-8.77 -8.63,-16.65 -15.17,-23.19 -12.22,-12.22 -29.1,-19.78 -47.75,-19.78 -18.65,0 -35.53,7.56 -47.75,19.78 -6.54,6.54 -11.75,14.42 -15.18,23.19z"/>
  </g>
  <g id="_1297184636352">
   <g>
    <path class="fil0" d="M187.61 95.52c50.85,0 92.08,41.23 92.08,92.09 0,50.86 -41.23,92.08 -92.08,92.08 -50.86,0 -92.09,-41.22 -92.09,-92.08 0,-50.86 41.23,-92.09 92.09,-92.09zm47.75 44.34c-12.22,-12.22 -29.1,-19.78 -47.75,-19.78 -18.65,0 -35.54,7.56 -47.75,19.78 -12.22,12.21 -19.78,29.1 -19.78,47.75 0,18.65 7.56,35.53 19.78,47.75 12.21,12.22 29.1,19.78 47.75,19.78 18.65,0 35.53,-7.56 47.75,-19.78 12.22,-12.22 19.78,-29.1 19.78,-47.75 0,-18.65 -7.56,-35.54 -19.78,-47.75z"/>
   </g>
   <g>
    <line class="fil1 str0" x1="187.61" y1="12.28" x2="187.61" y2= "68.49" />
    <line class="fil1 str0" x1="12.28" y1="187.61" x2="68.49" y2= "187.61" />
    <g>
     <line class="fil1 str0" x1="187.61" y1="362.94" x2="187.61" y2= "306.73" />
     <line class="fil1 str0" x1="362.94" y1="187.61" x2="306.73" y2= "187.61" />
    </g>
   </g>
   <g>
    <line class="fil1 str0" x1="63.63" y1="63.63" x2="103.38" y2= "103.38" />
    <line class="fil1 str0" x1="63.63" y1="311.58" x2="103.38" y2= "271.84" />
    <g>
     <line class="fil1 str0" x1="311.58" y1="311.59" x2="271.84" y2= "271.84" />
     <line class="fil1 str0" x1="311.59" y1="63.63" x2="271.84" y2= "103.38" />
    </g>
   </g>
  </g>
  <g>
   <path class="fil0" d="M187.61 187.61l-92.09 0c0,-50.86 41.23,-92.09 92.09,-92.09 50.85,0 92.08,41.23 92.08,92.09l-92.08 0z"/>
   <path id="_1_0" class="fil0" d="M187.61 187.61l-92.09 0c0,-50.86 41.23,-92.09 92.09,-92.09 50.85,0 92.08,41.23 92.08,92.09l-92.08 0zm-62.93 -24.56l62.93 0 62.92 0c-3.42,-8.77 -8.63,-16.65 -15.17,-23.19 -12.22,-12.22 -29.1,-19.78 -47.75,-19.78 -18.65,0 -35.53,7.56 -47.75,19.78 -6.54,6.54 -11.75,14.42 -15.18,23.19z"/>
  </g>
 </g>
</svg>
